<svg width="256" height="465" viewBox="0 0 256 465" fill="none" xmlns="http://www.w3.org/2000/svg">
<g id="BackMuscleView">
<rect width="256" height="465" fill="white"></rect>
<g class="hamstrings">
<path id="Vector_23" d="M107 234.5L106 233H103.5H101.5H100L98 234.5L96 237L93.5 240L90.5 244L88 249V251.5L88.5 262L89 272V284L89.5 290.5L90 297L91 303.5L92 309.5L93.5 314L96.5 316L100 315.5L103.5 314L107 309.5L108 303.5L109.5 296L110 288V271V261L109.5 254C109.333 252.167 109 248.4 109 248C109 247.6 108.167 243.167 108 241L107 234.5Z" fill="#3B3B3B"></path>
<path id="Vector_24" d="M149 234.5L150 233H152.5H154.5H156L158 234.5L160 237L162.5 240L165.5 244L168 249V251.5L167.5 262L167 272V284L166.5 290.5L166 297L165 303.5L164 309.5L162.5 314L159.5 316L156 315.5L152.5 314L149 309.5L148 303.5L146.5 296L146 288V271V261L146.5 254C146.667 252.167 147 248.4 147 248C147 247.6 147.833 243.167 148 241L149 234.5Z" fill="#3B3B3B"></path>
</g>
<g class="forearms">
<path id="Vector_3" d="M67 161.5H65H64L62 162.5L60 163.5L57.5 165.5L55.5 167.5L53.5 170.5L51.5 174.5L50.5 177L49.5 179.5L48.5 182L47.5 185.5L46.5 188.5L45.5 191.5L45 194L44.5 196L44 199V201L45 202.5H46.5L48 202L50.5 200L54.5 196L57.5 193L59.5 190L62 186.5L64 183L66 179.5L67.5 176.5L68.5 174.5L70 171L70.5 169V167.5V164.5L69.5 162.5L67 161.5Z" fill="#3B3B3B"></path>
<path id="Vector_4" d="M189 161H191H192L194 162L196 163L198.5 165L200.5 167L202.5 170L204.5 174L205.5 176.5L206.5 179L207.5 181.5L209 185.5L210.5 189L211.5 192.5L212 194.5L212.5 196.5L213 199.5L212.5 202L211.5 202.5H210.5L209 202L208 201.5L205.5 199.5L201.5 195.5L198.5 192.5L196.5 189.5L194 186L191.5 182.5L189.5 179L188 176L187 174L186 170.5L185.5 168.5V167V164L186.5 162L189 161Z" fill="#3B3B3B"></path>
</g>
<g class="triceps">
<path id="Vector_31" d="M83 149L77.5 155H77V151L77.5 145L78.5 140.5L75.5 143.5L71.5 146.5L68.5 149L68 147.5V142L70.5 135.5L73 130L77.5 125.5L81 123L85 121L91.5 118.5V126V133.5L90 138.5L87.5 143L83 149Z" fill="#3B3B3B"></path>
<path id="Vector_32" d="M173.5 149.5L179 155.5H179.5V151.5L179 145.5L178 141L181 144L185 147L188 149.5L188.5 148V142.5L186 136L183.5 130.5L179 126L175.5 123.5L171.5 121.5L165 119V126.5V134L166.5 139L169 143.5L173.5 149.5Z" fill="#3B3B3B"></path>
</g>
<g class="calfs">
<path id="Vector_21" d="M94 334L91.5 334.5L90 335L87.5 336.5L85.5 339L83.5 343.5L83 349.5V356L83.5 365.5L84 373.5L84.5 381.5L85.5 387.5L86 393L87 398.5L88 402L89 404.5L91.5 406L93.5 405L96 402L98 397.5L98.5 390.5L99.5 383.5L100.5 376L102.5 368.5L104 363L105 357.5V352L104 346.5L103 342L100.5 337L97 334.5L94 334Z" fill="#3B3B3B"></path>
<path id="Vector_22" d="M162 334L164.5 334.5L166 335L168.5 336.5L170.5 339L172.5 343.5L173 349.5V356L172.5 365.5L172 373.5L171.5 381.5L170.5 387.5L170 393L169 398.5L168 402L167 404.5L164.5 406L162.5 405L160 402L158 397.5L157.5 390.5L156.5 383.5L155.5 376L153.5 368.5L152 363L151 357.5V352L152 346.5L153 342L155.5 337L159 334.5L162 334Z" fill="#3B3B3B"></path>
</g>
<g class="glutes">
<path id="Vector_25" d="M108.5 187.5H105.5H105L104 188L102 189.5L100 192.5L98 197L97 200L96 204.5L95.5 209L95 213V218.5V224L96.5 227L97.5 229L101 230H108.5H112.5L115.5 229L119 228L121 227L122.5 226L124.5 224L126 220V215L125.5 209.5L123.5 205.5L120.5 200.5L116.5 195.5L112.5 190.5L108.5 187.5Z" fill="#3B3B3B"></path>
<path id="Vector_26" d="M147.5 187.5H150.5H151L152 188L154 189.5L156 192.5L158 197L159 200L160 204.5L160.5 209L161 213V218.5V224L159.5 227L158.5 229L155 230H147.5H143.5L140.5 229L137 228L135 227L133.5 226L131.5 224L130 220V215L130.5 209.5L132.5 205.5L135.5 200.5L139.5 195.5L143.5 190.5L147.5 187.5Z" fill="#3B3B3B"></path>
<g id="inner_hamstrings">
<path id="Vector_27" d="M136 231L132.5 229.5L131.5 233V242L132.5 249L133.5 254.5L134.5 261L135.5 268L136.5 273.5L137.5 279.5L139 286L141 293L143 299.5L144 296V292L143.5 282V270.5L144 262.5L144.5 255.5L145 249.5L145.5 242L147 235.5V232H144.5L140.5 231.5L136 231Z" fill="#3B3B3B"></path>
<path id="Vector_28" d="M121 230.5L124.5 229L125 232.5L124.5 241.5L124 248.5L123.5 254L122.5 260.5L121.5 267.5L120.5 273L119.5 279L118 285.5L116 292.5L114 299L113 295.5V291.5L113.5 281.5V270L113 262L112.5 255L112 249L111.5 241.5L110 235V231.5H112.5L116.5 231L121 230.5Z" fill="#3B3B3B"></path>
</g>
</g>
<g class="hip_abductors">
<path id="Vector_29" d="M102 177L99 172.5L97 177.5L96 182L94.5 186.5L93 191.5L91 197L89 203.5L88 209L87 216.5L86.5 225L85.5 235L85 240V248L85.5 247.5L87 246L89 243L91 239.5L94.5 236L96.5 233.5L94.5 231.5L93 229.5L92 226.5V222.5V215.5L92.5 208.5L93.5 202.5L95.5 197L97.5 192.5L100.5 188L104.5 185L107 183.5L105.5 182L104 180L102 177Z" fill="#3B3B3B"></path>
<path id="Vector_30" d="M154 176.5L156.5 172L158.5 177L160 181.5L161 186L163 191L164.5 197L166.5 203L167.5 209L168.5 216L169.5 224.5L170.5 234.5L171 247.5L170.5 247L169 245.5L167 242.5L165 239L161.5 235.5L159.5 233L161.5 231L163 229L164 226V222V215L163.5 208L162.5 202L160.5 196.5L158.5 192L155.5 187.5L151.5 184.5L149 183L150.5 181.5L152 179.5L154 176.5Z" fill="#3B3B3B"></path>
</g>
<g class="lower_back">
<path id="Vector_33" d="M131 174V149H133L134 149.5L135 151L137 153L139 157L141 162L143 166L144 168L146 171L148 174L150 176.5V178L148 180L145.5 182L142 184L140 186L138 189L135 191L133 192H131V174Z" fill="#3B3B3B"></path>
<path id="Vector_34" d="M125 174V149H123L122 149.5L121 151L119 153L117 157L115 162L113 166L112 168L110 171L108 174L106 176.5V178L108 180L110.5 182L114 184L116 186L118 189L121 191L123 192H125V174Z" fill="#3B3B3B"></path>
</g>
<g class="lats">
<path id="Vector_35" d="M94.5 117V133V137L95 142L96 147.5L97 152.5L97.5 157.5L98.5 162L99.5 166L101 169.5L102 171L103.5 173H104.5L106.5 171L109.5 168L112.5 163L114.5 158L116.5 153L118.5 149L122 146V144.5L121.5 143L119.5 139.5L117.5 136L115.5 130.5L113.5 125L111 118.5L109.5 112L107.5 106.5L105 109L102 111L99 113.5L94.5 117Z" fill="#3B3B3B"></path>
<path id="Vector_36" d="M161.5 117.5V133.5V137.5L161 142.5L160 145L159.5 148L158.5 153L158 158L157 162.5L156.5 166.5L155 170L154 171.5L152.5 173.5H151.5L149.5 171.5L146.5 168.5L143.5 163.5L141.5 158.5L139.5 153.5L137.5 149.5L134 146.5V145L134.5 143.5L136.5 140L138.5 136.5L140.5 131L142.5 125.5L145 119L146.5 112.5L148.5 107L151 109.5L154 111.5L157 114L161.5 117.5Z" fill="#3B3B3B"></path>
</g>
<g class="rear_delts">
<path id="Vector_37" d="M77 121L72.5 123.5L73 119L73.5 115L74.5 111L76.5 106.5L79 101.5L82.5 96.5L85.5 93.5L87 94L89.5 95L92.5 96L96 97.5L100 99L103.5 100L106.5 101.5V103L105.5 104L103.5 106L101.5 108L99.5 109.5L96.5 112L93.5 114L90 116L86.5 117.5L82 119L77 121Z" fill="#3B3B3B"></path>
<path id="Vector_38" d="M179.5 120.5L183.5 122.5L183 118.5L182 114.5L181 110.5L179.5 106.5L177.5 101L174 96L170.5 93L169.5 93.5L167 94.5L164 95.5L160.5 97L156.5 98.5L153 99.5L150 101V102.5L151 103.5L153 105.5L155 107.5L157 109L160 111.5L163 113.5L166.5 115.5L170 117L174.5 118.5L179.5 120.5Z" fill="#3B3B3B"></path>
</g>
<g class="traps">
<path id="Vector_39" d="M126 106V72.5H125.5L124.5 73.5L123.5 74.5L121 75.5L118 77L114 79L112 80L110 81L107.5 82L103.5 84L101.5 85L98 86.5L93 88.5L90 90L91 92L93 93L97 94.5L100 95.5L105 97L109 99L110 101.5L111 104.5L112 108L113 113.5L114 118.5L116 126.5L118.5 132.5L121.5 139L124.5 144L126 143V130.5V106Z" fill="#3B3B3B"></path>
<path id="Vector_40" d="M130.5 106V72.5H131L132 73.5L133 74.5L135.5 75.5L138.5 77L142.5 79L144.5 80L146.5 81L149 82.5L152 84L155 85.5L158.5 87L163.5 89L166.5 90.5L165.5 92L163.5 93L159.5 94.5L156.5 95.5L151.5 97L147.5 99L146.5 101.5L145.5 104.5L144.5 108L143.5 113.5L142.5 118.5L140.5 126.5L138 132.5L135 139L132 144L130.5 143V130.5V106Z" fill="#3B3B3B"></path>
</g>
<g class="upper_traps">
<path id="Vector_41" d="M127 66.5L126 69L124 72L121 74L115.5 76L116 64.5L118 62.5L119 62L120.5 61.5L123 61H127V66.5Z" fill="#3B3B3B"></path>
<path id="Vector_42" d="M129.5 66.5L130.5 69L132.5 72L135.5 74L140.5 76.5V64.5L138.5 62.5L137.5 62L136 61.5L133.5 61H129.5V66.5Z" fill="#3B3B3B"></path>
</g>
<path d="M44 189L37 202.5L31.5 207.5L24 212L17.5 223L21 223.5L16.5 228.5L16 231L18.5 234L25 237L33.5 239L36 238L43.5 224L44.5 220.5V214.5L57.5 195.5L62 190.5L70.5 173.5L72.5 166.5C79.0549 155.575 87.303 145.394 93 134L94.5 137L100 168.5L89.5 200L87.5 210L84.5 238V264L86.5 290.5L85.5 327L81.5 345.5V360.5L86.5 406.5C87.0689 409.913 88 413.524 88 417C88 422.142 86.7222 428.111 85.5 433L79 440L75.5 440.5L73 442L72.5 444.5L74 447L77.5 448L98 446L100.5 444.5V444.366C100.5 438.897 100.5 431.501 102.5 426.5C101.727 424.182 100.5 421.456 100.5 419C100.5 411.958 100.193 405.06 100.5 398C102.113 386.711 105.5 374.925 105.5 363.5C105.5 353.412 106.5 343.555 106.5 333.5L110.5 318.5L113.5 300L118.5 281L123.5 251L124.5 233H131V243L145.5 318.5L148.5 328.5L149.5 336V356.5L151.5 375L155.5 397C155.5 406.943 154.987 416.634 154 426.5L154.5 443L157 446L171.5 448L181 447.5L183 446L181 441L177.5 440.5C174.666 439.555 169.5 435.254 169.5 432V426.5L167 421C168.14 414.16 169.36 407.339 170.5 400.5L173.5 374L174.5 354.5L170 325L169 300L171.5 253.5L167.5 209L165.5 199.5L159.5 180.5L155.5 171L159.5 145L163 134L181 163L187.5 179L192.5 188L207.5 208L210.5 213.5L211.5 222L218.5 236L220.5 238L224.5 238.5C228.641 236.43 233.279 236.111 237.5 234L239.5 231L237.5 226.5L234.5 223H237.5L232.5 213L224.5 207.5L218.5 202L212.5 190.5L203.5 167.5L191.5 148L184.5 131L182.5 117L178.5 104L173 95L166.5 90L148 82L140 75V63L142.5 60.5L145.5 55L146.5 49.5V30.5L143.5 24L134.5 18L131 17H125L116.5 20L111.5 24.5L108.5 31V51.5L115.5 63V75L110 80.5L88 90.5L82 96L77.5 103L74 111.5L71 130.5L66.5 143L49.5 172L44 189Z" stroke="#999999" stroke-width="1.5" stroke-linejoin="bevel" class="silhouette"></path>
</g>
</svg>