<svg width="256" height="465" viewBox="0 0 256 465" fill="none" xmlns="http://www.w3.org/2000/svg">
<g id="FrontMuscleView">
<rect width="256" height="465" fill="white"></rect>
<g class="forearms">
<path id="Vector_3" d="M66.5 161.5H64.5H63.5L61.5 162.5L59.5 163.5L57 165.5L55 167.5L53 170.5L51 174.5L50 177L49 179.5L48 182L47 185.5L46 188.5L45 191.5L44.5 194L44 196L43.5 199V201L44.5 202.5H46L47.5 202L50 200L54 196L57 193L59 190L61.5 186.5L64 183L66 179.5L67.5 176.5L68.5 174.5L69.5 171L70 169V167.5V164.5L69 162.5L66.5 161.5Z" fill="#3B3B3B"></path>
<path id="Vector_4" d="M188.5 161H190.5H191.5L193.5 162L195.5 163L198 165L200 167L202 170L204 174L205 176.5L206 179L207 181.5L208.5 185.5L210 189L211 192.5L211.5 194.5L212 196.5L212.5 199.5L212 202L211 202.5H210L208.5 202L207.5 201.5L205 199.5L201 195.5L198 192.5L196 189.5L193.5 186L191 182.5L189 179L187.5 176L186.5 174L185.5 170.5L185 168.5V167V164L186 162L188.5 161Z" fill="#3B3B3B"></path>
</g>
<g class="shoulders">
<path id="Vector_5" d="M106 88.5L110 89.5L96.5 96.5L94 98.5L86 106.5L74.5 119.5L72.5 121L73 116.5L74 112.5L77 105L79.5 100L82.5 96L87.5 91.5L95 87.5H97.5L106 88.5Z" fill="#3B3B3B"></path>
<path id="Vector_6" d="M150 88.5L146 89.5L156 94.5L159.5 96.5L162 98.5L170 106.5L181.5 119.5L183.5 121L182.5 116.5L181.5 112.5L179 105L176.5 100L173.5 96L168.5 91.5L161 87.5H158.5L150 88.5Z" fill="#3B3B3B"></path>
</g>
<g class="abductors">
<path id="Vector_19" d="M157 218V207L155 207.5L153 208.5L150.5 210.5L148 212.5L145.5 214.5L142 217.5L139 220.5L136.5 223.5L133 228L131.5 233.5V241L132 248.5L133 255L134 261.5L134.5 264.5H136L136.5 263L137 260L138.5 254.5L139.5 251L141.5 247L144.5 242.5L148.5 238L153 233.5L153.5 232L154.5 229L156 224.5L157 218Z" fill="#3B3B3B"></path>
<path id="Vector_20" d="M99 218V207L101 207.5L103 208.5L105.5 210.5L108 212.5L110.5 214.5L114 217.5L117 220.5L119.5 223.5L123 228L124.5 233.5V241L124 248.5L123 255L122 261.5L121.5 264.5H120L119.5 263L119 260L117.5 254.5L116.5 251L114.5 247L111.5 242.5L107.5 238L103 233.5L102.5 232L101.5 229L100 224.5L99 218Z" fill="#3B3B3B"></path>
</g>
<g class="quads">
<path id="Vector_1" d="M108.5 297L111.5 293.5L113 289.5L116 272V262L114 252.5L109 244.5L94.5 228.5H93L90 237L88 251.5V272L90 286L93 294L99 300.5H103L108.5 297Z" fill="#3B3B3B"></path>
<path id="Vector_2" d="M160.5 229H162L163.5 232.5L165 237.5L166 243L167 252V272.5L165 286.5L163.5 291L162 294.5L159.5 297.5L156 301H152L150 300L146.5 297.5L143.5 294L142 290L141 286L140 280.5L139 272.5V262.5L139.5 258.5L141 253L146 245L160.5 229Z" fill="#3B3B3B"></path>
</g>
<g class="pects">
<path id="Vector_7" d="M126 101.5V111V118.5L125.5 123.5L123.5 126.5L121 129L118.5 130.5L115 131.5H110L105.5 131L101.5 130L99 128.5L96.5 126.5L94.5 124L92 121L91 119L90.5 115.5V111.5L91 109L93 106L96 103L100 100L104 98L112 95H119L122.5 96L124 97L125.5 99L126 101.5Z" fill="#3B3B3B"></path>
<path id="Vector_8" d="M130 101.5V111V118.5L130.5 123.5L132.5 126.5L135 129L137.5 130.5L141 131.5H146L150.5 131L154.5 130L157 128.5L159.5 126.5L161.5 124L164 121L165 119L165.5 115.5V111.5L165 109L163 106L160 103L156 100L152 98L144 95H137L133.5 96L132 97L130.5 99L130 101.5Z" fill="#3B3B3B"></path>
</g>
<g class="biceps">
<path id="Vector_9" d="M88.5 137.5V116.5H88L86.5 117.5L84.5 119L82.5 121L80 123.5L77 126.5L74.5 129.5L72.5 133L70.5 137L69.5 140.5L68.5 144.5L67.5 149V154L68 157.5L70 159H72.5L74 157.5L76.5 155.5L80 152L82.5 148L86 143L88.5 137.5Z" fill="#3B3B3B"></path>
<path id="Vector_10" d="M167 137V117L167.5 116L169 117L171 118.5L173 120.5L175.5 123L178.5 126L181 129L183 132.5L185 136.5L186 140L187 144L188 148.5V153.5V157.5L186.5 159H184.5L182.5 158.5L180.5 157L178.5 155L175.5 151.5L173 147.5L169.5 142.5L167 137Z" fill="#3B3B3B"></path>
</g>
<g class="obliques">
<path id="Vector_11" d="M100 149.5L101.5 143L103.5 140L106 138.5L105.5 142.5L105 145.5V149.5L106.5 156L107 162.5L106 169V176V183.5L106.5 187.5L108 191L106.5 190.5L101.5 186L98 182L97 179.5L97.5 177L98.5 174.5L99.5 172L100.5 168.5L100 162.5V159V153.5V149.5Z" fill="#3B3B3B"></path>
<path id="Vector_12" d="M156 149L154.5 142.5L152.5 139.5L150 138L150.5 142L151 145V149L149.5 155.5L149 162L150 168.5V175.5V183L149.5 187L148 190.5L149.5 190L154.5 185.5L158 181.5L159 179L158 176.5L157 174L156 171.5L155.5 168L156 162V158.5V153V149Z" fill="#3B3B3B"></path>
</g>
<g class="abs">
<path id="Vector_13" d="M122 207L126 209.5V172.5V136.5L124 135L121.5 134H118L114.5 135L112 137.5L110.5 140.5L109 144V147L110 151.5L110.5 155L111 158V164.5L110 169V173.5V182.5L111 188L112 192.5L114 197L118 203L122 207Z" fill="#3B3B3B"></path>
<path id="Vector_14" d="M133 207L129 209.5V172.5V136.5L131 135L133.5 134H137L140.5 135L143 137.5L144.5 140.5L146 144V147L145 151.5L144.5 155L144 158V164.5L145 169V173.5V182.5L144 188L143 192.5L141 197L137 203L133 207Z" fill="#3B3B3B"></path>
</g>
<g class="hip_abductors">
<path id="Vector_17" d="M94.5 203.5L90 200L89 204.5L88 209.5L87 216.5L86 225.5L85 236.5V244.5H86.5L87.5 239.5L88.5 234.5L89.5 230.5L90.5 227.5L92 224.5L92.5 222.5L93.5 220L94.5 217.5L95.5 213.5L96.5 208V205.5L94.5 203.5Z" fill="#3B3B3B"></path>
<path id="Vector_18" d="M161 203.5L165 200L166.5 204.5L167.5 209.5L168.5 216.5L169.5 225.5L170 236.5L170.5 244.5H169L168 239.5L167 234.5L166 230.5L165 227.5L163.5 224.5L163 222.5L162 220L161 217.5L160 213.5L159 208V205.5L161 203.5Z" fill="#3B3B3B"></path>
</g>
<g class="hip_flexors">
<path id="Vector_15" d="M115.5 206.5L118.5 210L113 209.5L109.5 208.5L105 207L101.5 205.5L98.5 203.5L96 201L94 198L92.5 195.5L92 193.5L93 191L94.5 187L96 188.5L98.5 190.5L100.5 192.5L104 194L106.5 195.5L110.5 197.5L111 200L113 203.5L115.5 206.5Z" fill="#3B3B3B"></path>
<path id="Vector_16" d="M139 207L136 210.5L141.5 210L145 209L149.5 207.5L153 206L156 204L158.5 201.5L160.5 198.5L163 195.5V193L162 189L161.5 187.5H161L158.5 189L156 191L154 193L150.5 194.5L148 196L144 198L143.5 200.5L141.5 204L139 207Z" fill="#3B3B3B"></path>
</g>
<path d="M44 189L37 202.5L31.5 207.5L24 212L17.5 223L21 223.5L16.5 228.5L16 231L18.5 234L25 237L33.5 239L36 238L43.5 224L44.5 220.5V214.5L57.5 195.5L62 190.5L70.5 173.5L72.5 166.5C79.0549 155.575 87.303 145.394 93 134L94.5 137L100 168.5L89.5 200L87.5 210L84.5 238V264L86.5 290.5L85.5 327L81.5 345.5V360.5L86.5 406.5C87.0689 409.913 88 413.524 88 417C88 422.142 86.7222 428.111 85.5 433L79 440L75.5 440.5L73 442L72.5 444.5L74 447L77.5 448L98 446L100.5 444.5V444.366C100.5 438.897 100.5 431.501 102.5 426.5C101.727 424.182 100.5 421.456 100.5 419C100.5 411.958 100.193 405.06 100.5 398C102.113 386.711 105.5 374.925 105.5 363.5C105.5 353.412 106.5 343.555 106.5 333.5L110.5 318.5L113.5 300L118.5 281L123.5 251L124.5 233H131V243L145.5 318.5L148.5 328.5L149.5 336V356.5L151.5 375L155.5 397C155.5 406.943 154.987 416.634 154 426.5L154.5 443L157 446L171.5 448L181 447.5L183 446L181 441L177.5 440.5C174.666 439.555 169.5 435.254 169.5 432V426.5L167 421C168.14 414.16 169.36 407.339 170.5 400.5L173.5 374L174.5 354.5L170 325L169 300L171.5 253.5L167.5 209L165.5 199.5L159.5 180.5L155.5 171L159.5 145L163 134L181 163L187.5 179L192.5 188L207.5 208L210.5 213.5L211.5 222L218.5 236L220.5 238L224.5 238.5C228.641 236.43 233.279 236.111 237.5 234L239.5 231L237.5 226.5L234.5 223H237.5L232.5 213L224.5 207.5L218.5 202L212.5 190.5L203.5 167.5L191.5 148L184.5 131L182.5 117L178.5 104L173 95L166.5 90L148 82L140 75V63L142.5 60.5L145.5 55L146.5 49.5V30.5L143.5 24L134.5 18L131 17H125L116.5 20L111.5 24.5L108.5 31V51.5L115.5 63V75L110 80.5L88 90.5L82 96L77.5 103L74 111.5L71 130.5L66.5 143L49.5 172L44 189Z" stroke="#999999" stroke-width="1.5" stroke-linejoin="bevel" class="silhouette"></path>
</g>
</svg>